<?xml version="1.0" standalone="no"?>
<!DOCTYPE svg PUBLIC "-//W3C//DTD SVG 20010904//EN"
 "http://www.w3.org/TR/2001/REC-SVG-20010904/DTD/svg10.dtd">
<svg version="1.0" xmlns="http://www.w3.org/2000/svg"
 width="1024.000000pt" height="1024.000000pt" viewBox="0 0 1024.000000 1024.000000"
 preserveAspectRatio="xMidYMid meet">
<metadata>
Created by potrace 1.14, written by Peter Selinger 2001-2017
</metadata>
<g transform="translate(0.000000,1024.000000) scale(0.100000,-0.100000)"
fill="#000000" stroke="none">
<path d="M2385 7670 c-11 -4 -23 -6 -27 -4 -5 3 -60 -6 -183 -30 -11 -2 -40
-10 -65 -17 -25 -7 -48 -13 -52 -15 -5 -1 -9 -2 -10 -4 -2 -1 -10 -3 -19 -5
-8 -1 -44 -15 -80 -29 -35 -15 -68 -28 -74 -30 -12 -3 -93 -44 -163 -82 -103
-57 -318 -223 -371 -288 -9 -10 -22 -24 -29 -30 -24 -21 -148 -181 -186 -240
-63 -96 -161 -299 -180 -371 -2 -5 -6 -17 -9 -25 -8 -21 -37 -124 -43 -152 -2
-13 -6 -34 -9 -48 -3 -14 -7 -41 -10 -60 -3 -19 -8 -46 -11 -60 -4 -14 -8
-466 -9 -1005 -1 -539 -6 -998 -9 -1020 -4 -22 -9 -49 -10 -60 -3 -23 -45
-155 -55 -170 -3 -5 -6 -12 -6 -15 -2 -16 -49 -93 -88 -145 -68 -91 -154 -175
-202 -197 -14 -6 -25 -14 -25 -18 0 -9 -115 -65 -183 -89 -78 -28 -149 -42
-227 -45 l-45 -2 -3 -428 -2 -428 87 6 c117 7 170 13 224 25 24 5 58 12 76 16
18 3 43 9 57 15 15 5 26 6 26 3 0 -4 5 -2 12 5 7 7 20 12 29 12 9 0 50 14 90
31 41 16 79 31 84 33 12 3 93 44 163 82 102 56 313 219 371 287 9 10 32 35 52
57 203 218 354 532 414 860 15 83 18 237 20 1095 1 523 6 973 10 1000 4 28 9
57 10 65 3 30 58 185 66 188 5 2 9 9 9 16 0 27 89 152 161 225 119 122 293
210 472 239 23 3 470 6 992 6 887 1 955 -1 1029 -18 44 -10 87 -21 95 -25 207
-96 294 -160 390 -285 60 -78 130 -211 136 -256 0 -3 3 -9 7 -15 12 -20 30
-130 33 -201 2 -40 5 -76 8 -81 2 -4 1 -17 -3 -28 -4 -11 -4 -30 1 -42 5 -12
4 -25 -1 -28 -5 -3 -5 -18 0 -35 5 -17 6 -30 2 -30 -4 0 -7 -16 -7 -35 0 -19
3 -35 7 -35 4 0 3 -13 -2 -30 -5 -17 -5 -30 0 -30 5 0 5 -13 0 -30 -5 -17 -5
-30 0 -30 5 0 5 -13 0 -30 -5 -17 -5 -30 0 -30 5 0 5 -13 0 -30 -5 -17 -5 -30
0 -30 5 0 5 -13 0 -30 -5 -17 -5 -30 0 -30 5 0 5 -13 0 -30 -5 -17 -5 -30 0
-30 5 0 5 -13 0 -30 -5 -17 -5 -30 0 -30 5 0 5 -13 0 -30 -5 -17 -5 -30 0 -30
5 0 5 -13 0 -30 -5 -17 -5 -30 0 -30 5 0 5 -13 0 -30 -5 -17 -5 -30 0 -30 5 0
5 -13 0 -29 -4 -15 -4 -34 0 -42 5 -7 5 -20 0 -29 -5 -9 -5 -22 0 -30 5 -8 5
-21 0 -30 -5 -9 -5 -22 0 -30 5 -8 5 -21 0 -30 -5 -9 -5 -22 0 -30 5 -8 5 -21
0 -30 -5 -9 -5 -22 0 -30 5 -8 5 -21 0 -30 -5 -9 -5 -22 0 -30 5 -8 5 -21 0
-30 -5 -9 -5 -22 0 -30 5 -8 5 -21 0 -30 -5 -9 -5 -22 0 -30 5 -8 5 -21 0 -30
-5 -9 -5 -22 0 -30 5 -8 5 -21 0 -30 -5 -9 -5 -22 0 -30 5 -8 5 -21 0 -30 -5
-9 -5 -22 0 -30 5 -8 5 -21 0 -30 -5 -9 -5 -22 0 -30 5 -8 5 -21 0 -30 -5 -9
-5 -22 0 -30 4 -7 4 -23 0 -36 -5 -12 -6 -24 -3 -27 3 -3 7 -43 8 -89 2 -46 6
-99 9 -118 7 -51 17 -109 22 -134 3 -11 8 -34 10 -50 17 -93 127 -362 188
-461 34 -54 116 -175 134 -196 111 -135 307 -319 339 -319 7 0 13 -4 13 -9 0
-20 223 -147 335 -190 33 -13 69 -27 80 -31 77 -33 194 -62 355 -86 67 -11
2064 -12 2135 -2 43 7 99 17 180 33 74 16 262 80 283 98 8 6 17 11 19 9 10 -7
245 122 275 151 7 8 31 25 53 39 22 14 57 42 79 62 21 20 41 36 43 36 19 0
263 285 263 308 0 6 3 12 8 12 15 0 121 192 162 295 13 33 27 65 32 71 5 7 8
16 6 20 -1 5 7 38 19 74 19 58 38 139 59 255 4 22 9 851 11 1843 l4 1802 -428
0 -428 0 -1 -1748 c0 -961 -4 -1769 -8 -1797 -16 -117 -91 -295 -161 -383 -39
-50 -154 -157 -202 -190 -62 -42 -178 -98 -221 -108 -15 -3 -38 -10 -52 -14
-59 -21 -152 -23 -1030 -25 -937 -2 -993 0 -1130 35 -51 13 -213 92 -236 115
-9 8 -19 15 -23 15 -19 0 -164 155 -204 217 -65 101 -114 217 -123 289 -2 20
-8 42 -12 48 -4 6 -7 448 -8 981 -1 534 -4 991 -8 1018 -3 26 -9 68 -12 95 -4
37 -32 153 -68 287 -10 37 -50 129 -100 230 -125 252 -324 478 -571 646 -72
49 -99 64 -205 115 -52 25 -102 49 -110 53 -9 5 -60 22 -115 39 -272 82 -242
81 -1385 80 -547 0 -1004 -3 -1015 -8z"/>
</g>
</svg>
